<?xml version="1.0" encoding="UTF-8"?><svg xmlns="http://www.w3.org/2000/svg" viewBox="0 0 255.43 83.34"><g id="a"/><g id="b"><g id="c"><g><path d="M.02,45.7c0-11.86,0-23.73,0-35.59,0-1.8-.38-1.75,1.7-1.83,4.15-.16,8.3-.27,12.46-.4,10.26-.32,20.52-.63,30.78-.96,9.38-.3,18.76-.63,28.14-.93,7.87-.26,15.73-.47,23.6-.77,4.67-.18,9.34-.33,14.01-.46,9.54-.27,19.08-.62,28.62-.93,7.67-.25,15.33-.49,23-.74,9.58-.31,19.16-.63,28.74-.94,7.67-.25,15.33-.5,23-.75,9.58-.31,19.16-.62,28.74-.94,3.63-.12,7.26-.29,10.89-.42,1.72-.06,1.72-.04,1.73,1.64,0,7.83,0,15.66,0,23.49,0,16.02,0,32.04,0,48.06,0,2.27-.09,1.83-1.9,1.89-10.98,.34-21.96,.65-32.94,1.04-4.39,.15-8.78,.32-13.17,.45-9.82,.28-19.64,.62-29.46,.95-7.15,.23-14.29,.48-21.44,.72-10.06,.33-20.12,.64-30.18,.97-7.51,.24-15.01,.5-22.52,.74-9.78,.32-19.56,.63-29.34,.95-4.55,.15-9.1,.31-13.65,.46-7.98,.26-15.97,.52-23.95,.77-4.67,.15-9.34,.3-14.01,.45-7.18,.24-14.37,.46-21.55,.75C.2,83.38,0,83.02,0,82.01c.03-12.1,.02-24.21,.02-36.31Zm37.13,0c0-2.44,0-4.87,0-7.31,0-2.56,0-5.11,0-7.67,0-.51-.07-1.03,.67-1.2,2.88-.66,6.57,1.02,7.98,3.66,.72,1.35,1.07,2.83,1.48,4.29,.12,.42,.02,1.11,.73,1.01,.62-.09,.4-.7,.41-1.09,.03-2.56-.01-5.11,.06-7.67,.03-1.06-.33-1.37-1.37-1.36-5.04,.05-10.07,.02-15.11,.02-3.76,0-7.51,0-11.27,0-.52,0-1.05-.1-1.04,.74,.04,2.84,.02,5.67,.04,8.51,0,.34-.06,.8,.44,.85,.5,.05,.53-.42,.61-.74,.32-1.28,.65-2.55,1.18-3.77,.8-1.84,1.95-3.3,3.94-3.93,1.23-.39,2.5-.48,3.78-.56,1.05-.07,1.4,.33,1.39,1.38-.05,3.95-.02,7.91-.02,11.86,0,5.87-.02,11.74,.02,17.62,0,.99-.34,1.39-1.32,1.33-.76-.05-1.52-.02-2.28,0-.39,0-.89-.05-.91,.52-.02,.69,.54,.56,.96,.57,1.08,.02,2.16,0,3.24,0,3.32,0,6.63,0,9.95,0,.38,0,.89,.11,.92-.48,.04-.67-.51-.59-.94-.61-.6-.02-1.2,0-1.8,0q-1.75,0-1.76-1.71c0-4.75,0-9.51,0-14.26Zm120.61,8.71c2,0,3.99,0,5.99,0,.46,0,1.01,.13,1.03-.63,.02-.84-.57-.7-1.07-.72-.08,0-.16,0-.24,0-2.13-.04-1.76,.32-2.51-1.75-3.71-10.16-7.39-20.33-11.09-30.5-.24-.67-.38-1.3-1.39-1.32-1.05-.03-1.25,.59-1.53,1.31-2.55,6.84-5.12,13.68-7.67,20.52-1.51,4.04-3,8.08-4.53,12.11-.26,.7-.24,1.01,.64,.99,1.6-.05,3.2-.02,4.79-.01,.49,0,.87-.05,.86-.69,0-.65-.42-.67-.89-.67-.8,0-1.6-.03-2.4,0-.77,.03-.87-.26-.63-.93,1.03-2.81,2.03-5.63,3.03-8.45,.18-.51,.45-.78,1.03-.78,3.16,.02,6.31,.01,9.47,0,.46,0,.75,.17,.9,.61,.98,2.91,1.97,5.82,2.96,8.73,.19,.55,.04,.83-.58,.81-.76-.02-1.52,0-2.28,0-.52,0-.96,.03-.93,.74,.03,.68,.49,.61,.93,.62,2.04,0,4.07,0,6.11,0Zm-46.24-1.18c-.04-2.47,.09-4.95-.2-7.42-.33-2.77-1.21-5.23-4.17-6.13-3.49-1.06-7.02-1.05-10.42,.43-2.33,1.02-3.3,2.8-3.08,5.27,.11,1.2,.67,2.06,1.85,2.38,1.24,.34,2.41,.1,3.28-.89,.83-.94,.62-2.09,.44-3.2-.04-.25-.28-.35-.51-.46-1.34-.6-1.45-1.77-.26-2.64,2.38-1.74,6.13-.5,6.95,2.32,.66,2.26,.49,4.59,.49,6.9,0,.6-.32,.83-.89,.9-1.19,.13-2.38,.29-3.56,.45-2.02,.27-4.04,.57-5.9,1.47-1.87,.91-2.96,2.38-3.04,4.51-.08,2.12,.43,3.98,2.42,5.11,2.93,1.65,8.62,1.37,10.47-1.75,.33-.55,.65-.55,.88,.09,.23,.65,.58,1.22,1.15,1.65,3.19,2.4,7.7,.77,8.51-3.09,.11-.55,.18-1.1,.23-1.66,.03-.35,.38-.9-.24-.98-.6-.07-.6,.53-.62,.96-.05,.81-.21,1.58-.52,2.33-.3,.72-.81,1.21-1.65,1.14-.83-.06-1.28-.62-1.46-1.37-.1-.42-.13-.87-.13-1.3-.01-1.68,0-3.35,0-5.03Zm-63.88-2.08c-.07,.97,.12,1.91,.24,2.86,.59,4.74,3.4,7.88,7.96,8.88,1.29,.28,2.6,.41,3.92,.35,5.66-.26,9.15-3.15,10.32-8.69,.58-2.76,.52-5.56-.18-8.3-.97-3.8-3.38-6.16-7.26-6.93-2.46-.48-4.94-.47-7.35,.19-3.26,.88-5.51,2.94-6.71,6.12-.67,1.78-.85,3.64-.94,5.52Zm177.44-9.51c2.12,0,4.24-.05,6.35,.02,1,.03,1.27-.37,1.19-1.27-.13-1.39-.2-2.78-.61-4.14-.94-3.08-2.97-4.92-6.12-5.57-1.47-.3-2.94-.29-4.42-.17-4.79,.39-8.32,3.28-9.52,7.81-.79,2.99-.8,6.01,0,9,.93,3.5,3.06,5.93,6.6,6.96,2.66,.78,5.36,.83,8.04,.08,3.14-.88,4.97-3.04,5.82-6.11,.09-.32,.3-.73-.24-.89-.48-.14-.83-.07-1.02,.49-.25,.71-.52,1.43-.9,2.08-1.37,2.39-4,3.62-6.83,3.25-2.9-.39-4.46-1.8-5.26-4.81-.48-1.83-.56-3.7-.6-5.58-.02-.88,.26-1.2,1.16-1.18,2.12,.05,4.24,.02,6.35,.01Zm-98.37,2.13c0-5.55-.02-11.11,.02-16.66,0-.89-.2-1.19-1.12-1.17-2.08,.06-4.16,0-6.23,.04-.54,.01-1.53-.32-1.54,.37-.02,.92,.99,.48,1.54,.5,1.84,.07,1.84,.03,1.84,1.88,0,10.19,0,20.38,0,30.56,0,2.43,.26,2.43-2.29,2.38-.47,0-1.07-.06-1.07,.63,0,.73,.64,.45,1.01,.45,3.68,.02,7.35,.01,11.03,.01,.24,0,.48,0,.72-.03,.38-.03,.57-.29,.6-.64,.04-.51-.38-.42-.68-.43-.72-.02-1.44,0-2.16-.01-1.58-.01-1.67-.09-1.67-1.72,0-5.39,0-10.79,0-16.18Zm44.85-1.42c.16-2.41,.14-4.78,.96-7.04,1.09-2.99,3.71-4.39,6.77-3.62,1.38,.35,2.16,1.37,2.06,2.69-.05,.6-.18,1.13-.95,1.1-.41-.01-.68,.17-.76,.59-.24,1.26-.23,2.51,.71,3.49,.95,.98,2.18,1.1,3.45,.74,1.32-.38,1.9-1.39,2.09-2.66,.47-3.13-1.1-5.63-4.22-6.62-2.62-.83-5.29-.79-7.93-.15-4,.96-6.58,3.47-7.69,7.42-.96,3.43-.95,6.88,.27,10.25,1.25,3.46,3.8,5.43,7.38,6.09,1.66,.31,3.32,.31,5,.06,3.74-.55,6.51-3.15,7.2-6.88,.07-.37,.29-.81-.32-.97-.54-.15-.81,.08-.95,.6-.24,.93-.57,1.83-1.08,2.65-1.59,2.58-4.01,3.28-6.83,2.91-2.51-.33-3.76-2.07-4.42-4.32-.62-2.09-.63-4.25-.74-6.34Zm26.48-7.54l-.29-.08c0-.95,0-1.9,0-2.85,0-.46-.05-.91-.67-.92-2.64,0-5.27,0-7.91,0-.39,0-.57,.21-.57,.6,0,.42,.25,.54,.62,.55,.44,0,.89,.06,1.32,0,1.14-.15,1.51,.29,1.49,1.46-.06,5.71-.02,11.42-.02,17.13q0,2.41-2.44,2.53s-.08,0-.12,0c-.4,.02-.83-.01-.85,.58-.01,.6,.41,.59,.82,.59,4.11,0,8.23,0,12.34,0,.41,0,.84,.02,.84-.57,0-.57-.41-.6-.83-.6-1,0-2-.03-3,0-.69,.02-1.04-.22-1.03-.96,.07-4.31-.22-8.63,.17-12.93,.21-2.31,1.06-4.43,2.8-6.07,.79-.75,1.72-1.17,2.84-.9,.7,.17,.91,.69,.9,1.37,0,.64-.38,.81-.93,.81-.38,0-.67,.07-.8,.54-.39,1.46,.33,3.27,1.55,3.82,1.48,.66,3.35,.15,4.15-1.14,1.66-2.65,.21-6.34-2.8-7.14-2.84-.75-5.63,.45-7.02,3.03-.2,.38-.39,.76-.58,1.15Zm-121.95,15.19h0c0,2.63,0,5.27,0,7.9,0,1.37,.37,2.6,1.31,3.62,1.08,1.17,2.53,1.51,4.01,1.64,5.21,.45,7.66-1.67,8.42-6.2,.06-.37,.17-.77-.33-.87-.48-.09-.44,.37-.53,.64-.25,.71-.39,1.47-.72,2.15-.88,1.81-2.63,2.66-4.44,2.23-1.5-.35-2.24-1.46-2.25-3.63-.04-5.27,0-10.54-.04-15.81,0-.96,.38-1.26,1.28-1.23,1.48,.05,2.96,.02,4.43,0,.41,0,1.02,.14,.99-.53-.02-.64-.63-.49-1.03-.49-1.48-.02-2.96-.05-4.43,0-.96,.04-1.27-.35-1.24-1.27,.05-1.6,0-3.19,.02-4.79,.01-.74-.27-1.01-1.01-.89-1.06,.17-2.13,.33-3.2,.41-.91,.06-1.26,.48-1.24,1.37,.04,1.32,0,2.63,0,3.95,.01,.83-.28,1.29-1.19,1.21-.44-.04-.88-.02-1.32,0-.41,.02-.99-.14-.98,.54,.01,.59,.55,.46,.92,.48,.36,.02,.72,.05,1.08,0,1.18-.15,1.53,.39,1.5,1.51-.05,2.67-.02,5.35-.02,8.02Zm165.49,1.19c0-2.19-1.37-3.49-3.65-3.48-2.22,0-3.71,1.48-3.71,3.65,0,2.13,1.47,3.53,3.68,3.51,2.21-.02,3.69-1.48,3.68-3.68Z"/><path d="M146.2,27.79c.33,.96,.67,1.93,1,2.89,1.09,3.21,2.14,6.42,3.27,9.61,.36,1.01,.07,1.25-.91,1.23-2.51-.04-5.02-.01-7.53-.02-.51,0-1.14,.09-.82-.8,1.56-4.3,3.12-8.6,4.67-12.9l.32-.02Z"/><path d="M105.89,54.81c-.03,1.11,.09,2.23-.25,3.33-.67,2.21-2.33,3.44-4.5,3.34-1.17-.05-1.94-.62-2.39-1.67-1.44-3.34,.21-6.77,3.72-7.69q3.42-.9,3.42,2.7Z"/><path d="M64.57,51.06c-.09,2.55-.08,5.12-.85,7.58-.9,2.9-3.2,4.27-5.85,3.54-1.36-.37-2.29-1.24-2.93-2.47-.77-1.49-1-3.11-1.16-4.74-.33-3.19-.27-6.37,.21-9.54,.15-.99,.45-1.94,.88-2.85,.88-1.88,2.41-2.76,4.41-2.72,1.99,.05,3.36,1.14,4.14,2.95,.95,2.21,1,4.58,1.16,6.93,.03,.44,0,.88,0,1.32Z"/><path d="M222.11,40.36c-1.2,0-2.39,0-3.59,0-.57,0-.92-.16-.87-.82,.16-1.87,.32-3.74,1.14-5.47,.87-1.81,2.48-2.73,4.34-2.52,1.4,.15,2.38,.86,2.91,2.16,.8,1.94,.74,3.97,.7,6.01-.01,.64-.48,.64-.93,.64-1.24,0-2.47,0-3.71,0Z"/><path d="M234.77,51.36c-.02-1.97,1.23-3.26,3.15-3.26,1.87,0,3.16,1.29,3.17,3.14,0,1.86-1.27,3.16-3.13,3.2-1.93,.04-3.17-1.15-3.19-3.08Zm1.94-.16h-.03c0,.4,.06,.81-.02,1.19-.1,.49,.04,.61,.51,.61,.59,0,.33-.33,.34-.61,.02-.4-.26-1.05,.29-1.14,.66-.11,.6,.56,.66,1.02,.01,.12,.02,.24,.07,.35,.12,.31,.39,.43,.68,.33,.38-.13,.04-.38,.04-.58-.01-.71-.66-1.39,0-2.16,.2-.23-.08-.73-.52-.75-.54-.03-.21,.39-.22,.61-.03,.39-.1,.72-.55,.78-.24,.04-.33-.13-.42-.32-.17-.38,.2-1.2-.53-1.06-.6,.12-.2,.89-.3,1.36-.02,.11,0,.24,0,.36Z"/></g></g></g></svg>