<?xml version="1.0" encoding="UTF-8"?>
<svg width="80px" height="77px" viewBox="0 0 80 77" version="1.1" xmlns="http://www.w3.org/2000/svg" xmlns:xlink="http://www.w3.org/1999/xlink">
    <title>Nature-Farming - Farming - farming-barn-1</title>
    <g id="Round-3" stroke="none" stroke-width="1" fill="none" fill-rule="evenodd">
        <g id="Issuance-Campaign-R3" transform="translate(-621.000000, -6221.000000)" fill="#FFFFFF" fill-rule="nonzero">
            <g id="Animated-Stats" transform="translate(-405.308012, 5645.768991)">
                <g id="Nature-Farming---Farming---farming-barn-1" transform="translate(1026.308012, 575.231009)">
                    <path d="M2.5,43.3820083 C2.16666667,43.3820083 1.86666667,43.3153417 1.53333333,43.1820083 C0.266666667,42.648675 -0.333333333,41.1820083 0.2,39.9153417 L10.2,15.9153417 C10.4333333,15.3820083 10.8333333,14.948675 11.3333333,14.648675 L38.8333333,0.282008335 C40.0666667,-0.351324998 41.5666667,0.115341668 42.2,1.348675 C42.8333333,2.58200833 42.3666667,4.08200833 41.1333333,4.71534167 L14.4666667,18.6820083 L4.8,41.848675 C4.4,42.8153417 3.46666667,43.3820083 2.5,43.3820083 Z" id="Path"></path>
                    <path d="M77.5,43.3820083 C76.5333333,43.3820083 75.6,42.8153417 75.2,41.848675 L65.5333333,18.6820083 L38.8333333,4.71534167 C37.6,4.08200833 37.1333333,2.548675 37.7666667,1.348675 C38.4,0.115341668 39.9333333,-0.351324998 41.1333333,0.282008335 L68.6333333,14.6820083 C69.1666667,14.948675 69.5666667,15.3820083 69.7666667,15.948675 L79.7666667,39.948675 C80.3,41.2153417 79.7,42.6820083 78.4333333,43.2153417 C78.1333333,43.348675 77.8,43.4153417 77.4666667,43.4153417 L77.5,43.3820083 Z" id="Path"></path>
                    <path d="M12.5,76.9820083 C11.1333333,76.9820083 10,75.848675 10,74.4820083 L10,38.4820083 C10,37.1153417 11.1333333,35.9820083 12.5,35.9820083 C13.8666667,35.9820083 15,37.1153417 15,38.4820083 L15,74.4820083 C15,75.848675 13.8666667,76.9820083 12.5,76.9820083 Z" id="Path"></path>
                    <path d="M67.5,76.9820083 C66.1333333,76.9820083 65,75.848675 65,74.4820083 L65,38.4820083 C65,37.1153417 66.1333333,35.9820083 67.5,35.9820083 C68.8666667,35.9820083 70,37.1153417 70,38.4820083 L70,74.4820083 C70,75.848675 68.8666667,76.9820083 67.5,76.9820083 Z" id="Path"></path>
                    <path d="M77.5,76.9820083 L2.5,76.9820083 C1.13333333,76.9820083 0,75.848675 0,74.4820083 C0,73.1153417 1.13333333,71.9820083 2.5,71.9820083 L77.5,71.9820083 C78.8666667,71.9820083 80,73.1153417 80,74.4820083 C80,75.848675 78.8666667,76.9820083 77.5,76.9820083 Z" id="Path"></path>
                    <path d="M55,76.9820083 C53.6333333,76.9820083 52.5,75.848675 52.5,74.4820083 L52.5,52.9820083 L27.5,52.9820083 L27.5,74.4820083 C27.5,75.848675 26.3666667,76.9820083 25,76.9820083 C23.6333333,76.9820083 22.5,75.848675 22.5,74.4820083 L22.5,50.4820083 C22.5,49.1153417 23.6333333,47.9820083 25,47.9820083 L55,47.9820083 C56.3666667,47.9820083 57.5,49.1153417 57.5,50.4820083 L57.5,74.4820083 C57.5,75.848675 56.3666667,76.9820083 55,76.9820083 Z" id="Path"></path>
                    <path d="M55,76.9820083 C54.4666667,76.9820083 53.9,76.8153417 53.4333333,76.448675 L23.4333333,52.448675 C22.3666667,51.5820083 22.1666667,50.0153417 23.0333333,48.948675 C23.9,47.8820083 25.4666667,47.6820083 26.5333333,48.548675 L56.5333333,72.548675 C57.6,73.4153417 57.8,74.9820083 56.9333333,76.048675 C56.4333333,76.6820083 55.7,76.9820083 54.9666667,76.9820083 L55,76.9820083 Z" id="Path"></path>
                    <path d="M25,76.9820083 C24.2666667,76.9820083 23.5333333,76.648675 23.0333333,76.048675 C22.1666667,74.9820083 22.3333333,73.3820083 23.4333333,72.548675 L53.4333333,48.548675 C54.5333333,47.6820083 56.1,47.848675 56.9333333,48.948675 C57.8,50.0153417 57.6333333,51.6153417 56.5333333,52.448675 L26.5333333,76.448675 C26.0666667,76.8153417 25.5333333,76.9820083 24.9666667,76.9820083 L25,76.9820083 Z" id="Path"></path>
                    <path d="M40,33.7820083 C34.5,33.7820083 30,29.4153417 30,24.0820083 C30,18.748675 34.5,14.3820083 40,14.3820083 C45.5,14.3820083 50,18.748675 50,24.0820083 C50,29.4153417 45.5,33.7820083 40,33.7820083 Z M40,19.3820083 C37.2333333,19.3820083 35,21.4820083 35,24.0820083 C35,26.6820083 37.2333333,28.7820083 40,28.7820083 C42.7666667,28.7820083 45,26.6820083 45,24.0820083 C45,21.4820083 42.7666667,19.3820083 40,19.3820083 Z" id="Shape"></path>
                </g>
            </g>
        </g>
    </g>
</svg>