<?xml version="1.0" encoding="UTF-8"?>
<svg width="66px" height="105px" viewBox="0 0 66 105" version="1.1" xmlns="http://www.w3.org/2000/svg" xmlns:xlink="http://www.w3.org/1999/xlink">
    <title>Nature-Farming - Farming - farming-wheat</title>
    <g id="Round-3" stroke="none" stroke-width="1" fill="none" fill-rule="evenodd">
        <g id="Issuance-Campaign-R3" transform="translate(-853.000000, -6252.000000)" fill="#FFFFFF" fill-rule="nonzero">
            <g id="Animated-Stats" transform="translate(-405.308012, 5645.768991)">
                <g id="Nature-Farming---Farming---farming-wheat" transform="translate(1258.308012, 606.231009)">
                    <path d="M33.0217028,53 C32.2838063,53 31.5459098,52.7354524 30.9382304,52.2504486 C30.5041736,51.8977185 20,42.9912843 20,31.527557 C20,20.0638298 30.5041736,11.1133043 30.9382304,10.7605742 C32.1535893,9.74647526 33.8898164,9.74647526 35.0617696,10.7605742 C35.4958264,11.1133043 46,20.0197385 46,31.4834658 C46,42.947193 35.4958264,51.8536273 35.0617696,52.2063573 C34.4540902,52.6913612 33.7161937,52.9559087 32.9782972,52.9559087 L33.0217028,53 Z M33.0217028,17.9033581 C30.5041736,20.6370161 26.5108514,25.7956934 26.5108514,31.4834658 C26.5108514,37.1712381 30.5041736,42.3740067 33.0217028,45.1076647 C35.5392321,42.3740067 39.5325543,37.1712381 39.5325543,31.4834658 C39.5325543,25.7956934 35.5392321,20.6370161 33.0217028,17.9033581 Z" id="Shape"></path>
                    <path d="M30.8744001,69 C26.2912197,69 15.2042881,68.2139993 8.00214752,61.008993 C-1.03326522,51.9263183 0.0143188625,36.6866382 0.0579681995,36.0753043 C0.18891621,34.4596362 1.45474698,33.1933018 3.06977245,33.0623016 C3.7245125,33.0186349 18.9144817,31.9269673 27.9935438,41.009642 C37.0726059,50.0923167 35.9813725,65.2883301 35.9377231,65.9433306 C35.8067751,67.5589987 34.5409444,68.8253332 32.9259189,68.9563333 C32.7949709,68.9563333 32.0529322,69 30.8744001,69 Z M6.60536874,39.5686407 C6.77996608,43.8043111 7.78390083,51.5333179 12.6289772,56.3803222 C17.517703,61.2709932 25.1999863,62.2753274 29.3903226,62.4499942 C29.2157253,58.2143238 28.2117905,50.5289837 23.3667141,45.6383127 C18.4779884,40.7476417 10.7957051,39.7433075 6.60536874,39.5686407 Z" id="Shape"></path>
                    <path d="M35.1249866,69 C33.9465955,69 33.2046456,68.9563333 33.0737132,68.9563333 C31.458881,68.8253332 30.1932017,67.5589987 30.0622694,65.9433306 C30.0186253,65.2883301 28.9275225,50.0923167 38.005498,41.009642 L38.005498,41.009642 C47.0834736,31.9269673 62.2716251,33.0186349 62.9262868,33.0623016 C64.541119,33.1933018 65.8067983,34.4596362 65.9377306,36.0753043 C65.9813747,36.7303049 67.0724775,51.9263183 57.994502,61.008993 C50.7932233,68.2139993 39.7076185,69 35.1249866,69 L35.1249866,69 Z M42.6317741,45.6383127 C37.7872775,50.485317 36.7834629,58.2143238 36.6088864,62.4063275 C40.8423654,62.2316607 48.5237294,61.1836598 53.3682259,56.3803222 C58.2127225,51.5333179 59.2165371,43.8043111 59.3911136,39.6123074 C55.1576346,39.7869742 47.4762706,40.7913085 42.6317741,45.6383127 L42.6317741,45.6383127 Z" id="Shape"></path>
                    <path d="M30.8744001,98 C26.2912197,98 15.2042881,97.2139993 8.00214752,90.008993 C-1.03326522,80.9263183 0.0143188625,65.6866382 0.0579681995,65.0753043 C0.18891621,63.4596362 1.45474698,62.1933018 3.06977245,62.0623016 C3.7245125,62.0186349 18.9144817,60.9269673 27.9935438,70.009642 C37.0726059,79.0923167 35.9813725,94.2883301 35.9377231,94.9433306 C35.8067751,96.5589987 34.5409444,97.8253332 32.9259189,97.9563333 C32.7949709,97.9563333 32.0529322,98 30.8744001,98 L30.8744001,98 Z M6.60536874,68.5686407 C6.77996608,72.8043111 7.78390083,80.5333179 12.6289772,85.3803222 C17.517703,90.2709932 25.1999863,91.2753274 29.3903226,91.4499942 C29.2157253,87.2143238 28.2117905,79.5289837 23.3667141,74.6383127 C18.4779884,69.7476417 10.7957051,68.7433075 6.60536874,68.5686407 L6.60536874,68.5686407 Z" id="Shape"></path>
                    <path d="M35.1249866,98 C33.9465955,98 33.2046456,97.9563333 33.0737132,97.9563333 C31.458881,97.8253332 30.1932017,96.5589987 30.0622694,94.9433306 C30.0186253,94.2883301 28.9275225,79.0923167 38.005498,70.009642 L38.005498,70.009642 C47.0834736,60.9269673 62.2716251,62.0186349 62.9262868,62.0623016 C64.541119,62.1933018 65.8067983,63.4596362 65.9377306,65.0753043 C65.9813747,65.7303049 67.0724775,80.9263183 57.994502,90.008993 C50.7932233,97.2139993 39.7076185,98 35.1249866,98 L35.1249866,98 Z M42.6317741,74.6383127 C37.7872775,79.485317 36.7834629,87.2143238 36.6088864,91.4063275 C40.8423654,91.2316607 48.5237294,90.1836598 53.3682259,85.3803222 C58.2127225,80.5333179 59.2165371,72.8043111 59.3911136,68.6123074 C55.1576346,68.7869742 47.4762706,69.7913085 42.6317741,74.6383127 Z" id="Shape"></path>
                    <path d="M33.5,105 C31.5866667,105 30,103.526667 30,101.75 L30,95.25 C30,93.4733333 31.5866667,92 33.5,92 C35.4133333,92 37,93.4733333 37,95.25 L37,101.75 C37,103.526667 35.4133333,105 33.5,105 Z" id="Path"></path>
                    <path d="M3.5,40 C1.58666667,40 0,38.4888889 0,36.6666667 L0,23.3333333 C0,21.5111111 1.58666667,20 3.5,20 C5.41333333,20 7,21.5111111 7,23.3333333 L7,36.6666667 C7,38.4888889 5.41333333,40 3.5,40 Z" id="Path"></path>
                    <path d="M62.5,40 C60.5866667,40 59,38.4888889 59,36.6666667 L59,23.3333333 C59,21.5111111 60.5866667,20 62.5,20 C64.4133333,20 66,21.5111111 66,23.3333333 L66,36.6666667 C66,38.4888889 64.4133333,40 62.5,40 Z" id="Path"></path>
                    <path d="M33.5,16 C31.5866667,16 30,14.5493333 30,12.8 L30,3.2 C30,1.45066667 31.5866667,0 33.5,0 C35.4133333,0 37,1.45066667 37,3.2 L37,12.8 C37,14.5493333 35.4133333,16 33.5,16 Z" id="Path"></path>
                </g>
            </g>
        </g>
    </g>
</svg>